# xmcd CD database file
#
# Track frame offsets:
#	150
#	19635
#	36147
#	47483
#	63660
#	84305
#	101560
#	117825
#	130674
#	147237
#	159999
#	173618
#	193033
#	206597
#	223628
#
# Disc length: 3206 seconds
#
# Revision: 1
# Processed by: cddbd v1.5.1PL0 Copyright (c) Steve Scherf et al.
# Submitted via: CDex 1.50
#
DISCID=c60c840f
DTITLE=Margarita la diosa de la cumbia - Mexico y su musica [CD2)
DYEAR=1900
DGENRE=Salsa
TTITLE0=Que nadie sepa mi sufir (amor de mis amores)
TTITLE1=Chambacú
TTITLE2=Capullo y sorullo
TTITLE3=Sombras
TTITLE4=El pescador
TTITLE5=Te van a pone' morao'
TTITLE6=Les gusta el Cu
TTITLE7=Que suba el telón
TTITLE8=No te puedo querer
TTITLE9=Cataclismo
TTITLE10=Rondando tu esquina
TTITLE11=Te estan matando los años
TTITLE12=El tren de seis
TTITLE13=A mover la colita
TTITLE14=El peloncito
EXTD=
EXTT0=
EXTT1=
EXTT2=
EXTT3=
EXTT4=
EXTT5=
EXTT6=
EXTT7=
EXTT8=
EXTT9=
EXTT10=
EXTT11=
EXTT12=
EXTT13=
EXTT14=
PLAYORDER=
